<svg height="512" viewBox="0 0 512 512" width="512" xmlns="http://www.w3.org/2000/svg"><g id="Flat"><rect fill="#8acce7" height="280" rx="32" width="400" x="88" y="24"/><path d="m88 256h400a0 0 0 0 1 0 0v16a32 32 0 0 1 -32 32h-336a32 32 0 0 1 -32-32v-16a0 0 0 0 1 0 0z" fill="#379ec3"/><path d="m128 56h320a8 8 0 0 1 8 8v192a0 0 0 0 1 0 0h-336a0 0 0 0 1 0 0v-192a8 8 0 0 1 8-8z" fill="#a2c32a"/><circle cx="288" cy="280" fill="#8acce7" r="8"/><circle cx="144" cy="80" fill="#e44042" r="8"/><circle cx="168" cy="80" fill="#eebe33" r="8"/><circle cx="192" cy="80" fill="#349966" r="8"/><path d="m256 304v32a32 32 0 0 1 -32 32h128a32 32 0 0 1 -32-32v-32z" fill="#8acce7"/><path d="m144 96h288v16h-288z" fill="#68b840"/><path d="m256 136v88l64-48z" fill="#e44042"/><path d="m160 304v.3q.18018-.19514 0-.3z" fill="#eedc9a"/><path d="m167.98749 304.31006c.02-.01.01-.01.01-.01v31.69994h-112v-16.05a16.97665 16.97665 0 0 1 -6.1001-32.37988 16.00051 16.00051 0 0 1 18.81007-22.86012 15.99957 15.99957 0 1 1 31.29-4.71c0 .52-.03 1.02-.08008 1.53a15.98084 15.98084 0 0 1 25.81006 18.6499 15.57849 15.57849 0 0 1 2.27-.17993 16.00553 16.00553 0 0 1 15.09009 10.71 16.0005 16.0005 0 0 1 24.90997 13.29003c0 .1 0 .21-.01001.31006z" fill="#eedc9a"/><path d="m190.36869 329.94443-6.36869 158.05557h-35.19995l8.75122-160.44149a16.45469 16.45469 0 0 1 16.43027-15.55851 16.45469 16.45469 0 0 1 16.38715 17.94443z" fill="#e44042"/><path d="m157.45351 329.35087-8.65346 158.64913h-27.19995l2.90622-159.84443a16.45469 16.45469 0 0 1 16.45197-16.15557h.06495a16.4547 16.4547 0 0 1 16.43027 17.35087z" fill="#c4d4e0"/><path d="m124.49544 328.75381-2.89534 159.24619h-27.2002l-2.89534-159.24619a16.45469 16.45469 0 0 1 16.45197-16.75381h.08694a16.45469 16.45469 0 0 1 16.45197 16.75381z" fill="#e44042"/><path d="m94.3999 488h-27.1999l-8.65351-158.64913a16.4547 16.4547 0 0 1 16.43027-17.35087h.06495a16.45469 16.45469 0 0 1 16.452 16.15557z" fill="#c4d4e0"/><path d="m67.2 488h-27.2l-14.36869-158.05557a16.45469 16.45469 0 0 1 16.38712-17.94443 16.45469 16.45469 0 0 1 16.43027 15.55851z" fill="#e44042"/><path d="m160 368-4.62167 9.24335a32 32 0 0 0 -3.37833 14.31082v80.44583a16 16 0 0 0 16 16h56a16 16 0 0 0 16-16v-80.44582a32 32 0 0 0 -3.37833-14.31084l-4.62167-9.24334z" fill="#2d80b3"/><rect fill="#c4d4e0" height="32" rx="16" width="72" x="160" y="352"/></g></svg>